<?xml version="1.0" encoding="UTF-8" standalone="no"?>
<!-- Created with Inkscape (http://www.inkscape.org/) -->

<svg
   xmlns:dc="http://purl.org/dc/elements/1.1/"
   xmlns:cc="http://creativecommons.org/ns#"
   xmlns:rdf="http://www.w3.org/1999/02/22-rdf-syntax-ns#"
   xmlns:svg="http://www.w3.org/2000/svg"
   xmlns="http://www.w3.org/2000/svg"
   xmlns:sodipodi="http://sodipodi.sourceforge.net/DTD/sodipodi-0.dtd"
   xmlns:inkscape="http://www.inkscape.org/namespaces/inkscape"
   width="351.4375"
   height="351.4375"
   id="svg2"
   version="1.1"
   inkscape:version="0.48.4 r9939"
   sodipodi:docname="zhongwen-jiemi.svg">
  <defs
     id="defs4" />
  <sodipodi:namedview
     id="base"
     pagecolor="#ffffff"
     bordercolor="#666666"
     borderopacity="1.0"
     inkscape:pageopacity="0.0"
     inkscape:pageshadow="2"
     inkscape:zoom="0.49497475"
     inkscape:cx="48.744461"
     inkscape:cy="48.98417"
     inkscape:document-units="px"
     inkscape:current-layer="layer1"
     showgrid="false"
     fit-margin-top="0"
     fit-margin-left="0"
     fit-margin-right="0"
     fit-margin-bottom="0"
     inkscape:window-width="1680"
     inkscape:window-height="1000"
     inkscape:window-x="0"
     inkscape:window-y="26"
     inkscape:window-maximized="1" />
  <metadata
     id="metadata7">
    <rdf:RDF>
      <cc:Work
         rdf:about="">
        <dc:format>image/svg+xml</dc:format>
        <dc:type
           rdf:resource="http://purl.org/dc/dcmitype/StillImage" />
        <dc:title />
      </cc:Work>
    </rdf:RDF>
  </metadata>
  <g
     inkscape:label="Layer 1"
     inkscape:groupmode="layer"
     id="layer1"
     transform="translate(-86.397186,-174.67756)">
    <g
       id="g2992">
      <path
         inkscape:connector-curvature="0"
         id="rect2985"
         d="m 112.67844,174.67756 c -14.550234,0 -26.281254,11.73101 -26.281254,26.28125 l 0,298.875 c 0,14.55024 11.73102,26.28125 26.281254,26.28125 l 298.875,0 c 14.55024,0 26.28125,-11.73101 26.28125,-26.28125 l 0,-298.875 c 0,-14.55024 -11.73101,-26.28125 -26.28125,-26.28125 l -298.875,0 z m 5.15625,6.0625 288.59375,0 c 14.04834,0 25.34375,11.2954 25.34375,25.34375 l 0,288.59375 c 0,14.04835 -11.2954,25.375 -25.34375,25.375 l -288.59375,0 c -14.04834,0 -25.375004,-11.32665 -25.375004,-25.375 l 0,-288.59375 c 0,-14.04835 11.326664,-25.34375 25.375004,-25.34375 z m 3.4375,4.03125 c -13.71375,0 -24.750004,11.03624 -24.750004,24.75 l 0,281.71875 c 0,13.71376 11.036254,24.75 24.750004,24.75 l 281.71875,0 c 13.71376,0 24.75,-11.03624 24.75,-24.75 l 0,-281.71875 c 0,-13.71376 -11.03624,-24.75 -24.75,-24.75 l -281.71875,0 z"
         style="fill:#b6100a;fill-opacity:1;stroke-width:10;stroke-miterlimit:4" />
      <flowRoot
         transform="matrix(1.19985,0,0,1.19985,-32.522947,-5.9373489)"
         style="font-size:40px;font-style:normal;font-weight:normal;line-height:125%;letter-spacing:0px;word-spacing:0px;fill:#ffffff;fill-opacity:1;stroke:none;font-family:Sans"
         id="flowRoot3808"
         xml:space="preserve"><flowRegion
           id="flowRegion3810"><rect
             style="fill:#ffffff"
             y="199.79344"
             x="107.07617"
             height="347.49249"
             width="212.13203"
             id="rect3812" /></flowRegion><flowPara
           style="font-size:141.68437195px;font-style:normal;font-variant:normal;font-weight:normal;font-stretch:normal;text-align:start;line-height:85.00000238%;writing-mode:lr-tb;text-anchor:start;fill:#ffffff;font-family:'王漢宗中隸書繁';-inkscape-font-specification:'王漢宗中隸書繁'"
           id="flowPara3814">中</flowPara><flowPara
           style="font-size:141.68437195px;font-style:normal;font-variant:normal;font-weight:normal;font-stretch:normal;text-align:start;line-height:85.00000238%;writing-mode:lr-tb;text-anchor:start;fill:#ffffff;font-family:'王漢宗中隸書繁';-inkscape-font-specification:'王漢宗中隸書繁'"
           id="flowPara3816">文</flowPara></flowRoot>      <flowRoot
         transform="matrix(1.1030679,0,0,1.1030679,133.37761,13.563896)"
         style="font-size:40px;font-style:normal;font-weight:normal;line-height:125%;letter-spacing:0px;word-spacing:0px;fill:#ffffff;fill-opacity:1;stroke:none;font-family:Sans"
         id="flowRoot3808-0"
         xml:space="preserve"><flowRegion
           id="flowRegion3810-3"><rect
             style="fill:#ffffff"
             y="199.79344"
             x="107.07617"
             height="347.49249"
             width="212.13203"
             id="rect3812-5" /></flowRegion><flowPara
           style="font-size:154.1156311px;font-style:normal;font-variant:normal;font-weight:normal;font-stretch:normal;text-align:start;line-height:85.00000238%;writing-mode:lr-tb;text-anchor:start;fill:#ffffff;font-family:'王漢宗中隸書繁';-inkscape-font-specification:'王漢宗中隸書繁'"
           id="flowPara3816-9">揭密</flowPara></flowRoot>    </g>
  </g>
</svg>
