<?xml version="1.0" encoding="UTF-8" standalone="no"?>
<!-- Created with Inkscape (http://www.inkscape.org/) -->

<svg
   xmlns:dc="http://purl.org/dc/elements/1.1/"
   xmlns:cc="http://creativecommons.org/ns#"
   xmlns:rdf="http://www.w3.org/1999/02/22-rdf-syntax-ns#"
   xmlns:svg="http://www.w3.org/2000/svg"
   xmlns="http://www.w3.org/2000/svg"
   version="1.2"
   width="351.4375"
   height="351.4375"
   id="svg2">
  <defs
     id="defs4" />
  <metadata
     id="metadata7">
    <rdf:RDF>
      <cc:Work
         rdf:about="">
        <dc:format>image/svg+xml</dc:format>
        <dc:type
           rdf:resource="http://purl.org/dc/dcmitype/StillImage" />
        <dc:title></dc:title>
      </cc:Work>
    </rdf:RDF>
  </metadata>
  <g
     transform="translate(-86.397186,-174.67756)"
     id="layer1">
    <path
       d="M 26.28125,0 C 11.731016,0 0,11.73101 0,26.28125 l 0,298.875 c 0,14.55024 11.731016,26.28125 26.28125,26.28125 l 298.875,0 c 14.55024,0 26.28125,-11.73101 26.28125,-26.28125 l 0,-298.875 C 351.4375,11.73101 339.70649,0 325.15625,0 l -298.875,0 z m 5.15625,6.0625 288.59375,0 c 14.04834,0 25.34375,11.2954 25.34375,25.34375 l 0,288.59375 c 0,14.04835 -11.2954,25.375 -25.34375,25.375 l -288.59375,0 C 17.38916,345.375 6.0625,334.04835 6.0625,320 l 0,-288.59375 C 6.0625,17.3579 17.38916,6.0625 31.4375,6.0625 z m 3.4375,4.03125 c -13.71375,0 -24.75,11.03624 -24.75,24.75 l 0,281.71875 c 0,13.71376 11.03625,24.75 24.75,24.75 l 281.71875,0 c 13.71376,0 24.75,-11.03624 24.75,-24.75 l 0,-281.71875 c 0,-13.71376 -11.03624,-24.75 -24.75,-24.75 l -281.71875,0 z m 60.8125,30.625 c 0.214644,-0.01861 0.443545,-0.0091 0.65625,0 1.418036,0.06055 2.754837,0.748281 4,2.0625 2.76684,3.76312 3.56111,8.90766 2.34375,15.4375 -8e-5,3.09906 1.09886,4.65633 3.3125,4.65625 14.60927,-0.22127 27.43217,0.45061 38.5,2 7.85794,1.54957 10.89569,6.90764 9.125,16.09375 -0.55353,5.64461 -0.85822,11.461 -0.96875,17.4375 -0.55353,6.86203 -2.40118,10.9076 -5.5,12.125 -4.86993,1.32818 -12.76184,1.58728 -23.71875,0.8125 -5.75532,-0.22131 -11.57172,-0.26689 -17.4375,-0.15625 -2.76702,4e-5 -4.15634,1.34379 -4.15625,4 -9e-5,12.61721 0.21344,25.22657 0.65625,37.84375 0.66397,6.08723 -0.89332,10.68228 -4.65625,13.78125 -1.32821,0.77472 -2.64071,0.6979 -3.96875,-0.1875 -4.09514,-1.88151 -5.74357,-6.14062 -4.96875,-12.78125 0.55331,-12.83853 0.81241,-25.66144 0.8125,-38.5 -9e-5,-2.6562 -1.64852,-4.09109 -4.96875,-4.3125 -15.49485,-0.66401 -27.17323,0.22141 -35.03125,2.65625 -3.87373,0.88547 -6.82036,0.50394 -8.8125,-1.15625 -2.76697,-2.65621 -4.36982,-7.49604 -4.8125,-14.46875 -1.10679,-11.17831 -1.53387,-19.61971 -1.3125,-25.375 1.10676,-6.19782 4.90752,-8.85408 11.4375,-7.96875 3.76297,0.11074 9.07547,-0.22516 15.9375,-1 9.29681,-0.55328 17.09758,-0.84367 23.40625,-0.84375 2.43482,8e-5 3.65617,-1.4348 3.65625,-4.3125 -0.33211,-6.30848 -0.20972,-10.61317 0.34375,-12.9375 -9e-5,-1.21734 1.38923,-2.68348 4.15625,-4.34375 0.684787,-0.311248 1.324818,-0.50667 1.96875,-0.5625 z M 212.8125,41.75 c 1.33807,-0.01731 2.86774,0.441197 4.5625,1.375 3.20958,2.9884 4.26297,6.86599 3.15625,11.625 l -1.5,9.46875 c -0.33207,2.76703 0.84369,4.12509 3.5,4.125 6.08717,-0.33195 10.17832,0.5079 12.28125,2.5 1.77077,4.64852 -0.16805,7.59513 -5.8125,8.8125 l -6.96875,0 c -2.76699,8e-5 -4.15631,1.31257 -4.15625,3.96875 l 0,7.15625 c -6e-5,2.65631 1.64839,3.63287 4.96875,2.96875 l 5,-0.65625 c 4.42702,-0.77468 6.41139,0.87375 5.96875,4.96875 -2.10293,3.43104 -5.47663,5.61465 -10.125,6.5 -3.54172,0.88548 -5.43495,1.52609 -5.65625,1.96875 l 0.5,24.59375 c -0.55343,16.71225 -9.07167,27.47396 -25.5625,32.34375 -6.97268,1.99219 -12.78907,0.008 -17.4375,-5.96875 -2.4349,-5.20183 -0.45053,-7.6901 5.96875,-7.46875 8.41144,0.44271 15.3268,-1.32812 20.75,-5.3125 2.76689,-3.09894 4.23302,-7.69399 4.34375,-13.78125 l 0.3125,-16.4375 c -3e-5,-3.09892 -1.099,-4.07547 -3.3125,-2.96875 -3.9844,1.77088 -7.98441,3.70968 -11.96875,5.8125 -5.09116,2.43494 -8.34247,1.30472 -9.78125,-3.34375 -2e-5,-2.54553 1.55727,-5.29292 4.65625,-8.28125 4.75908,-3.76298 10.16273,-5.9153 16.25,-6.46875 2.87757,-0.77468 4.34371,-2.45436 4.34375,-5 l 0,-10.46875 c -4e-5,-2.65618 -1.67972,-3.96867 -5,-3.96875 -3.87373,0.3321 -7.75133,0.88159 -11.625,1.65625 -6.19793,1.88158 -9.4948,0.06517 -9.9375,-5.46875 1.88149,-5.31241 5.55987,-8.13663 11.09375,-8.46875 3.54163,0.11077 7.25127,0.4467 11.125,1 2.65622,0.11076 3.99996,-1.4921 4,-4.8125 -0.2214,-4.98037 -0.26698,-9.95693 -0.15625,-14.9375 1.21742,-4.641436 3.27499,-6.993174 6.21875,-7.03125 z m 68.28125,7.59375 c 4.50319,0.02766 9.19984,0.157255 14.125,0.40625 4.86966,0.33215 9.29673,1.79828 13.28125,4.34375 2.76678,2.10296 2.93476,5.35426 0.5,9.78125 -0.88555,3.09905 -1.69415,7.52612 -2.46875,13.28125 -0.88555,5.09122 -2.44284,9.5183 -4.65625,13.28125 -1.54961,2.21361 -3.70194,3.31256 -6.46875,3.3125 -7.3048,-1.66009 -14.12902,-2.42311 -20.4375,-2.3125 -2.54568,0.22142 -3.90375,1.15242 -4.125,2.8125 -0.44281,1.66022 0.99208,2.54563 4.3125,2.65625 15.49466,-0.66401 27.72252,-0.20567 36.6875,1.34375 9.51807,3.54172 12.81494,9.11333 9.9375,16.75 -0.66423,1.54952 -0.80094,3.82425 -0.46875,6.8125 0.33187,11.06773 0.0414,19.96747 -0.84375,26.71875 -0.55354,4.86981 -3.54573,8.8698 -8.96875,11.96875 -9.18634,4.53775 -18.75793,4.91927 -28.71875,1.15625 -4.98057,-2.10287 -7.08735,-4.42318 -6.3125,-6.96875 1.99207,-2.4349 5.53373,-2.64843 10.625,-0.65625 3.65221,0.33204 8.41523,-0.46223 14.28125,-2.34375 2.76679,-0.77473 5.0871,-2.42318 6.96875,-4.96875 1.43865,-5.53385 1.98813,-15.22784 1.65625,-29.0625 -0.88557,-5.42314 -3.9689,-9.05594 -9.28125,-10.9375 -6.30872,-1.2174 -11.95716,-1.72131 -16.9375,-1.5 -3.20975,0.44276 -4.21756,0.99224 -3,1.65625 2.98817,2.10291 3.78244,4.88156 2.34375,8.3125 -0.5535,1.32818 0.80457,2.47269 4.125,3.46875 8.0793,2.32425 13.80454,4.64455 17.125,6.96875 0.77459,1.88153 0.69778,3.31643 -0.1875,4.3125 -4.75925,6.41929 -10.16289,6.70965 -16.25,0.84375 l -5.65625,-4.5 c -2.54568,-1.43877 -5.3699,-0.38539 -8.46875,3.15625 -8.41155,6.75132 -14.5639,8.8581 -18.4375,6.3125 -3.87379,-3.32029 -3.29305,-6.14451 1.6875,-8.46875 5.31241,-1.66013 9.73947,-4.36195 13.28125,-8.125 2.32411,-2.32419 3.37749,-4.85803 3.15625,-7.625 -1.1e-4,-1.32807 0.13661,-2.45829 0.46875,-3.34375 0.55328,-0.88537 -0.88162,-0.88537 -4.3125,0 -2.98838,0.11072 -5.81259,1.79041 -8.46875,5 -4.20582,5.42321 -8.38811,6.69014 -12.59375,3.8125 -0.99617,-1.88147 -0.90503,-3.77469 0.3125,-5.65625 5.86579,-6.08719 9.52986,-10.98692 10.96875,-14.75 0.88532,-2.43483 -0.50401,-3.18353 -4.15625,-2.1875 -1.88161,0.22142 -3.53004,-0.80071 -4.96875,-3.125 -1.54957,-2.87754 -2.67977,-7.30462 -3.34375,-13.28125 -1.3282,-8.63273 -2.6407,-15.28896 -3.96875,-19.9375 -0.88549,-2.43479 0.0455,-4.41916 2.8125,-5.96875 9.71185,-1.909095 21.33419,-2.832965 34.84375,-2.75 z m 12,9.71875 c -0.46518,0.02074 -0.96046,0.07325 -1.5,0.15625 -10.62512,-0.33193 -21.20453,0.004 -31.71875,1 -2.54566,0.4428 -3.81259,1.49617 -3.8125,3.15625 -0.11076,1.10685 1.82803,1.65633 5.8125,1.65625 8.41135,0.77482 18.79156,0.89723 31.1875,0.34375 2.87748,-0.22126 4.34362,-0.9387 4.34375,-2.15625 0.38725,-2.905184 -1.05626,-4.301452 -4.3125,-4.15625 z M 80.4375,74.28125 C 69.106892,74.29341 59.472295,75.04743 51.53125,76.5 c -2.54561,1.21752 -3.85809,3.7058 -3.96875,7.46875 l 0,11.125 c 0.88539,4.09511 3.16012,5.78912 6.8125,5.125 10.4036,5e-5 20.78379,-0.21348 31.1875,-0.65625 2.65617,6e-5 3.99991,-1.64838 4,-4.96875 l 0,-16.125 c -9e-5,-2.76685 -1.38941,-4.12491 -4.15625,-4.125 -1.687834,-0.02766 -3.350092,-0.06424 -4.96875,-0.0625 z M 106,74.5 c -2.76702,9e-5 -4.15634,1.38941 -4.15625,4.15625 -0.22145,5.31258 -0.26702,10.79303 -0.15625,16.4375 -9e-5,2.98834 1.48038,4.46881 4.46875,4.46875 l 28.71875,0 c 2.65612,-0.44265 4.47253,-2.42702 5.46875,-5.96875 l 0,-10.125 c -0.11087,-1.5494 -0.4155,-3.15226 -0.96875,-4.8125 -0.55352,-2.32413 -1.94284,-3.33195 -4.15625,-3 C 125.7004,74.7709 115.96083,74.38941 106,74.5 z m 167.15625,1.15625 c -4.98047,0.05534 -9.02609,0.223345 -12.125,0.5 -2.65634,0.22143 -3.7553,1.27481 -3.3125,3.15625 0.77464,2.32428 2.33193,3.42324 4.65625,3.3125 6.41916,-0.55332 15.48686,-0.59887 27.21875,-0.15625 2.87747,8e-5 4.64831,-1.00774 5.3125,-3 0.66393,-2.21346 -0.67982,-3.43482 -4,-3.65625 -6.86204,-0.165975 -12.76953,-0.21159 -17.75,-0.15625 z m -33.34375,34.3125 c 1.84993,-0.0761 3.72267,1.09639 5.625,3.53125 0.44262,1.32816 0.65618,3.67972 0.65625,7 -0.11075,6.75133 0.0573,11.55993 0.5,14.4375 0.33195,4.64846 3.53768,6.1745 9.625,4.625 15.16265,-1.21742 29.03895,-1.52212 41.65625,-0.96875 3.09882,0.88543 3.98424,2.70183 2.65625,5.46875 -1.54961,5.86589 -5.228,7.97266 -11.09375,6.3125 -17.37642,-3.20962 -31.66546,-2.61458 -42.84375,1.8125 -5.09122,1.66016 -8.41935,-0.82812 -9.96875,-7.46875 l -1.15625,-20.75 c -1.43886,-5.97653 -0.84382,-10.35803 1.8125,-13.125 0.83006,-0.55337 1.69037,-0.84042 2.53125,-0.875 z m 11.125,74.65625 c 3.11969,-0.1902 5.81097,1.07332 8.09375,3.8125 1.21734,3.4311 0.88142,7.09515 -1,10.96875 12.39573,-0.11058 26.34883,0.22536 41.84375,1 7.0832,0.99619 11.96861,4.41545 14.625,10.28125 0.44256,5.97664 1.37355,10.40372 2.8125,13.28125 2.21339,5.42324 0.48813,10.26308 -5.15625,14.46875 -3.76316,0.22142 -6.17463,-2.67962 -7.28125,-8.65625 L 302.21875,216.5 c -0.44285,-1.77074 -1.28269,-3.25122 -2.5,-4.46875 -9.07566,-2.65617 -21.68501,-3.75511 -37.84375,-3.3125 -21.58211,-1.10667 -40.25266,-0.22126 -55.96875,2.65625 -1.21749,0.55347 -2.19405,1.36207 -2.96875,2.46875 -1.32816,4.09514 -1.7865,9.53002 -1.34375,16.28125 -0.88546,5.6446 -3.70967,8.17845 -8.46875,7.625 -2.98831,-1.1067 -4.63674,-3.47259 -4.96875,-7.125 -0.1107,-9.07544 0.89712,-16.78507 3,-23.09375 0.99606,-3.54158 3.74346,-5.73949 8.28125,-6.625 4.2057,-0.88533 10.40361,-1.34365 18.59375,-1.34375 8.85411,-0.22125 18.33455,-0.26683 28.40625,-0.15625 l -1.6875,-5.8125 c -1.43888,-3.3202 -0.85815,-5.93088 1.6875,-7.8125 1.59095,-0.69169 3.08196,-1.0698 4.5,-1.15625 z m -159.90625,3.71875 c 1.30738,-0.0208 2.630339,0.17875 4,0.59375 4.53767,2.9884 5.59104,6.65246 3.15625,10.96875 -0.99619,2.98838 -1.59124,6.14854 -1.8125,9.46875 -0.44281,2.8777 0.61059,4.31258 3.15625,4.3125 22.91004,0.11074 40.11445,0.66024 51.625,1.65625 1.21731,0.55347 2.10272,1.17977 2.65625,1.84375 0.88527,2.3243 -1.05353,5.78914 -5.8125,10.4375 -4.20586,3.09903 -8.63294,3.77089 -13.28125,2 -13.50271,-5.42311 -33.82171,-7.52987 -60.9375,-6.3125 -13.2813,0.99616 -24.33337,3.10293 -33.1875,6.3125 -6.08726,2.76698 -10.4232,2.04955 -12.96875,-2.15625 -0.88544,-4.427 1.55726,-8.35018 7.3125,-11.78125 1.77079,-0.88533 3.99998,-1.26684 6.65625,-1.15625 14.16663,-0.66398 27.87495,-1.07674 41.15625,-1.1875 2.65617,9e-5 3.75514,-1.64834 3.3125,-4.96875 L 83.25,196.75 c -1.10685,-2.21345 -0.60294,-4.36578 1.5,-6.46875 2.005975,-1.24505 4.102283,-1.9029 6.28125,-1.9375 z m 158.875,21.84375 c 5.53376,0.99618 7.51814,3.98836 5.96875,8.96875 -1.32822,3.32038 -2.47274,6.64852 -3.46875,9.96875 -0.11077,3.32038 -1.71363,5.09121 -4.8125,5.3125 -1.99226,-0.88535 -3.09122,-2.6106 -3.3125,-5.15625 -0.33211,-2.21346 -0.91285,-4.41139 -1.6875,-6.625 -2.65633,-8.41137 -0.21362,-12.57934 7.3125,-12.46875 z m 24.75,5.3125 c 4.3163,0.55346 6.25509,2.9506 5.8125,7.15625 -0.33215,0.8855 -0.88162,1.93888 -1.65625,3.15625 -4.20584,4.31647 -9.76313,9.29303 -16.625,14.9375 -2.43499,2.21359 -1.88552,4.48834 1.65625,6.8125 21.02852,13.72401 41.68346,25.06643 61.9375,34.03125 4.42692,2.76695 3.96859,5.34636 -1.34375,7.78125 -7.30484,4.75912 -13.92984,5.59896 -19.90625,2.5 -3.32046,-1.54947 -7.74752,-5.09112 -13.28125,-10.625 -10.73578,-9.85023 -22.58214,-19.42184 -35.53125,-28.71875 -2.76703,-1.88145 -5.7592,-1.54553 -8.96875,1 -6.30866,5.31254 -15.42195,12.18232 -27.375,20.59375 -2.43495,1.66018 -3.10683,2.37763 -2,2.15625 3.76297,-0.33201 6.20567,1.60678 7.3125,5.8125 0.77468,7.19402 1.99603,12.42969 3.65625,15.75 2.32415,0.55339 6.46087,0.50782 12.4375,-0.15625 2.65616,10e-6 4.13664,-1.64844 4.46875,-4.96875 -7e-5,-7.52603 -0.38159,-15.73956 -1.15625,-24.59375 -0.33211,-5.53382 1.82022,-8.32678 6.46875,-8.4375 2.87751,-0.11063 5.10669,1.79691 6.65625,5.78125 0.77464,1.77086 0.89704,4.00003 0.34375,6.65625 -0.77484,4.9805 -1.11076,12.18621 -1,21.59375 -9e-5,2.76694 1.3124,4.125 3.96875,4.125 l 9.46875,0 c 3.32021,-0.11068 5.51812,-1.80469 6.625,-5.125 0.55327,-3.87369 0.88922,-7.79686 1,-11.78125 1.54937,-3.32029 4.28243,-4.37367 8.15625,-3.15625 3.87357,1.43882 5.09493,4.39976 3.65625,8.9375 -0.88554,4.4271 -1.55741,8.85418 -2,13.28125 -1.10688,8.52214 -4.81653,12.18618 -11.125,10.96875 -15.05218,-3.98438 -30.48576,-4.36589 -46.3125,-1.15625 -3.98443,1.99219 -8.19798,1.99219 -12.625,0 -0.99614,-0.88542 -1.54562,-2.22918 -1.65625,-4 -1.6602,-9.40754 -2.37766,-18.30729 -2.15625,-26.71875 0.77468,-1.10675 -0.73703,-0.48045 -4.5,1.84375 -6.97269,4.31642 -13.21617,7.35417 -18.75,9.125 -3.9844,1.54949 -7.31252,1.30469 -9.96875,-0.6875 -5.53387,-5.42317 -5.02997,-9.26951 1.5,-11.59375 19.03642,-6.52992 37.67573,-16.85022 55.9375,-30.90625 2.87753,-2.10281 2.66399,-4.01036 -0.65625,-5.78125 -6.0873,-3.20957 -12.11724,-5.56113 -18.09375,-7 -2.87765,-0.44265 -5.02999,-1.08326 -6.46875,-1.96875 -1.88154,-1.1067 -2.43103,-2.45046 -1.65625,-4 1.99214,-4.20566 5.79292,-5.76295 11.4375,-4.65625 5.20176,1.66023 12.83457,5.61466 22.90625,11.8125 2.87753,1.7709 5.86971,1.31257 8.96875,-1.34375 7.63662,-6.08716 13.4986,-11.90356 17.59375,-17.4375 1.10666,-0.66398 2.0689,-0.99991 2.84375,-1 z M 112.5,230.0625 c 1.36964,-0.0415 2.78707,0.48343 4.28125,1.5625 2.65614,1.88158 3.3736,4.03391 2.15625,6.46875 -1.54958,4.20578 -5.97667,10.83078 -13.28125,19.90625 -2.54567,2.76697 -2.33212,5.25526 0.65625,7.46875 23.46343,16.82294 42.72904,27.95182 57.78125,33.375 2.21339,0.77473 3.14438,1.78255 2.8125,3 -0.77488,2.10286 -2.42334,3.53775 -4.96875,4.3125 -3.76318,1.66015 -8.19024,2.8815 -13.28125,3.65625 -6.75143,1.32811 -13.28527,-1.78647 -19.59375,-9.3125 -10.51443,-10.0716 -20.97146,-19.18487 -31.375,-27.375 -2.65633,-1.99216 -5.31258,-1.65621 -7.96875,1 -17.48705,15.38413 -35.19535,26.10026 -53.125,32.1875 -2.98829,1.21744 -6.57555,1.33983 -10.78125,0.34375 -3.09897,-1.66016 -5.03777,-4.14844 -5.8125,-7.46875 -0.11063,-3.87369 2.20963,-5.98047 6.96875,-6.3125 18.81508,-5.31249 36.52339,-13.49477 53.125,-24.5625 3.54159,-3.09893 3.83196,-5.75517 0.84375,-7.96875 -7.96881,-5.5338 -14.62506,-9.74734 -19.9375,-12.625 -2.2136,-0.99603 -4.41151,-2.43093 -6.625,-4.3125 -1.99224,-3.43093 -0.38936,-6.13274 4.8125,-8.125 2.6562,-0.77467 5.95306,0.0339 9.9375,2.46875 l 19.59375,14.9375 c 2.87751,2.10292 5.53377,1.55343 7.96875,-1.65625 3.76293,-4.98042 6.92309,-10.33848 9.46875,-16.09375 1.93679,-3.18192 4.06102,-4.80582 6.34375,-4.875 z m 165.5625,5.0625 c 1.84001,0.0514 4.01329,0.87088 6.53125,2.46875 l 6.65625,3 c 2.87749,1.21751 4.86185,2.2709 5.96875,3.15625 1.66002,3.2097 0.27071,5.11723 -4.15625,5.78125 -2.87772,-0.22131 -6.4194,-0.0533 -10.625,0.5 -3.32043,5e-5 -5.51835,-0.16792 -6.625,-0.5 -4.4272,-2.10281 -5.48058,-5.69005 -3.15625,-10.78125 1.24505,-2.4902 3.04052,-3.69114 5.40625,-3.625 z m -69.90625,4.71875 c 1.27106,-0.0571 2.74608,0.0742 4.40625,0.40625 4.42703,0.7748 8.85411,1.32428 13.28125,1.65625 1.88145,-0.11062 3.14837,1.11073 3.8125,3.65625 0.44264,1.43885 -0.65632,2.6602 -3.3125,3.65625 -9.73964,3.98443 -16.60943,5.58729 -20.59375,4.8125 -4.31645,-3.20958 -5.07947,-7.30073 -2.3125,-12.28125 1.03758,-1.17591 2.60032,-1.81113 4.71875,-1.90625 z"
       transform="translate(86.397186,174.67756)"
       id="rect2985"
       style="fill:#000000;fill-opacity:1;stroke-width:10;stroke-miterlimit:4" />
  </g>
</svg>
